<?xml version="1.0" standalone="no"?>
<!DOCTYPE svg PUBLIC "-//W3C//DTD SVG 20010904//EN"
 "http://www.w3.org/TR/2001/REC-SVG-20010904/DTD/svg10.dtd">
<svg version="1.0" xmlns="http://www.w3.org/2000/svg"
 width="3600.000000pt" height="3600.000000pt" viewBox="0 0 3600.000000 3600.000000"
 preserveAspectRatio="xMidYMid meet">

<g transform="translate(0.000000,3600.000000) scale(0.100000,-0.100000)"
fill="#000000" stroke="none">
<path d="M15005 31482 c-77 -29 -103 -47 -147 -105 -57 -76 -73 -139 -72 -287
0 -103 16 -235 33 -275 5 -11 19 -54 32 -95 12 -41 25 -79 28 -85 3 -5 11 -35
17 -65 7 -30 19 -82 29 -115 33 -114 23 -364 -17 -410 -4 -5 -8 -15 -8 -23 0
-35 -47 -109 -104 -163 -30 -29 -89 -24 -153 12 -51 29 -55 30 -78 15 -48 -31
-29 -83 45 -125 33 -19 164 -26 215 -12 45 12 148 102 160 141 4 13 16 33 26
44 11 11 19 25 19 31 0 6 10 31 22 56 21 41 23 58 23 229 0 177 -5 222 -35
295 -5 11 -14 38 -21 60 -7 22 -17 44 -21 50 -4 5 -8 19 -8 32 0 21 -22 96
-40 138 -22 50 -44 186 -43 270 0 100 9 136 53 207 41 67 71 78 152 59 41 -9
53 -8 73 5 23 15 24 18 10 44 -8 16 -27 38 -43 49 -31 21 -115 35 -147 23z"/>
<path d="M11947 31256 c-25 -19 -31 -69 -18 -151 16 -102 26 -153 61 -297 6
-24 17 -81 24 -128 8 -47 17 -94 20 -105 2 -11 14 -60 26 -110 11 -49 25 -106
30 -125 5 -19 15 -66 21 -105 12 -76 20 -120 39 -205 14 -64 27 -136 36 -200
8 -52 28 -80 59 -80 53 0 65 81 26 175 -32 77 -68 219 -81 315 -5 41 -14 98
-20 125 -18 91 -24 165 -12 165 6 0 14 -6 19 -12 10 -17 68 -155 105 -253 48
-128 52 -138 71 -174 9 -19 17 -38 17 -44 0 -15 32 -79 62 -124 15 -23 28 -46
28 -52 0 -13 45 -55 76 -72 20 -10 27 -10 44 6 26 24 25 54 -2 96 -13 19 -29
46 -37 61 -8 15 -22 36 -30 45 -9 10 -25 36 -35 58 -10 22 -36 76 -57 120 -21
44 -41 94 -45 110 -7 28 -15 50 -62 155 -11 25 -23 61 -27 80 -4 19 -12 42
-18 51 -8 13 -6 31 6 69 9 29 17 61 17 71 0 10 4 20 9 23 15 9 22 145 12 206
-5 30 -15 88 -21 128 -11 64 -17 77 -54 113 -58 58 -112 79 -199 79 -45 -1
-79 -6 -90 -14z m173 -86 c10 -10 32 -43 47 -72 27 -51 28 -58 27 -203 0 -136
-2 -154 -23 -197 -36 -75 -42 -67 -66 92 -14 90 -21 127 -45 238 -6 26 -13 73
-17 105 l-5 57 31 0 c17 0 40 -9 51 -20z"/>
<path d="M16395 30855 c-21 -21 -35 -46 -35 -60 0 -13 -4 -26 -9 -29 -5 -4
-12 -25 -16 -49 -6 -41 -10 -54 -33 -107 -18 -42 -62 -179 -62 -195 0 -9 -4
-23 -9 -33 -5 -9 -13 -28 -19 -42 -5 -14 -19 -45 -30 -70 -12 -25 -24 -58 -27
-75 -4 -16 -11 -41 -17 -55 -6 -14 -14 -34 -18 -45 -5 -11 -17 -40 -28 -65
-11 -25 -23 -61 -27 -80 -4 -19 -11 -41 -15 -50 -20 -37 -50 -111 -50 -120 0
-6 -4 -18 -10 -28 -5 -9 -14 -39 -20 -67 -39 -175 -35 -215 23 -215 39 0 62
21 72 65 7 32 21 77 35 110 17 41 49 141 55 175 3 19 10 45 16 58 5 12 13 32
18 45 8 22 22 54 40 100 6 12 13 37 16 55 8 38 25 41 75 12 19 -11 52 -27 74
-36 37 -16 38 -18 32 -55 -3 -22 -16 -60 -28 -86 -11 -27 -29 -66 -39 -88 -10
-22 -21 -56 -25 -75 -3 -19 -10 -41 -14 -50 -40 -81 -70 -195 -70 -268 0 -70
0 -70 30 -77 57 -12 82 9 108 90 8 22 17 49 22 60 5 11 13 40 18 65 9 41 31
111 53 165 20 50 39 118 39 140 0 13 4 26 8 29 4 3 14 28 22 56 8 28 18 53 22
56 4 3 8 16 8 29 0 13 4 26 9 29 5 3 12 27 16 53 4 27 10 53 14 58 4 6 13 30
21 55 7 25 17 49 22 55 4 5 8 19 8 31 0 13 4 25 9 28 5 3 12 27 16 52 4 26 10
54 15 63 7 15 20 46 41 96 16 40 39 116 39 130 0 9 5 24 12 35 11 16 8 23 -17
45 -49 41 -76 34 -108 -27 -15 -29 -27 -60 -27 -69 0 -9 -3 -19 -7 -23 -10
-10 -31 -75 -38 -120 -7 -43 -61 -218 -76 -248 -5 -10 -9 -24 -9 -32 0 -24
-34 -121 -45 -128 -13 -9 -33 -3 -117 36 -74 34 -80 45 -50 98 11 18 22 50 26
72 4 21 11 46 16 55 22 42 50 112 50 125 0 8 4 17 9 20 5 3 12 22 16 43 3 20
16 57 27 82 32 72 36 84 43 115 10 46 -4 85 -35 101 -28 15 -30 14 -65 -20z"/>
<path d="M10435 30854 c-16 -3 -39 -9 -50 -14 -11 -4 -32 -11 -47 -14 -22 -5
-29 -14 -34 -43 -9 -48 1 -271 14 -303 5 -14 20 -59 32 -100 12 -41 26 -82 30
-90 4 -9 11 -31 14 -50 4 -19 11 -44 15 -55 11 -26 51 -115 61 -135 4 -9 11
-31 15 -50 7 -35 64 -160 77 -170 3 -3 9 -22 13 -43 4 -20 11 -37 16 -37 5 0
9 -6 9 -14 0 -8 3 -16 8 -18 9 -4 35 -48 63 -105 12 -24 25 -43 30 -43 4 0 21
-19 37 -42 35 -50 119 -111 179 -129 36 -10 49 -9 89 6 89 34 140 101 165 218
12 57 4 151 -22 233 -5 17 -9 40 -9 52 0 11 -4 24 -10 27 -5 3 -10 17 -10 30
0 35 -26 112 -68 205 -11 25 -24 56 -27 70 -3 14 -10 34 -14 45 -12 29 -52
117 -62 137 -5 10 -9 23 -9 29 0 17 -31 80 -62 126 -15 23 -28 45 -28 48 0 18
-109 139 -156 172 -59 42 -179 68 -259 57z m139 -103 c3 -5 21 -12 40 -15 26
-5 43 -19 75 -62 22 -30 41 -61 41 -69 0 -8 4 -16 9 -19 5 -3 12 -21 15 -39 3
-18 26 -74 51 -123 25 -49 45 -96 45 -104 0 -8 9 -26 20 -40 11 -14 20 -32 20
-40 0 -8 9 -26 20 -40 11 -14 20 -34 20 -45 0 -11 7 -33 15 -49 8 -15 15 -36
15 -45 0 -9 4 -21 8 -26 4 -6 14 -28 21 -50 7 -22 16 -49 21 -60 11 -25 31
-159 37 -248 7 -107 -33 -187 -94 -187 -30 0 -86 51 -136 124 -22 34 -44 63
-49 64 -4 2 -8 10 -8 18 0 8 -20 50 -45 93 -25 43 -48 92 -51 109 -4 18 -10
32 -15 32 -5 0 -9 6 -9 14 0 8 -10 34 -21 58 -28 56 -36 75 -48 118 -12 45
-60 181 -70 200 -5 9 -12 31 -16 50 -4 19 -11 41 -15 50 -24 48 -45 112 -60
175 -12 55 3 123 31 135 8 4 23 12 34 18 24 13 92 15 99 3z"/>
<path d="M9028 30203 c-41 -21 -46 -56 -14 -103 14 -22 26 -44 26 -49 0 -5 6
-16 13 -23 7 -7 40 -51 72 -98 33 -47 62 -87 66 -90 3 -3 19 -25 34 -50 15
-25 31 -47 35 -50 10 -7 95 -141 103 -163 5 -13 0 -21 -18 -29 -14 -6 -25 -14
-25 -18 0 -11 -96 -60 -116 -60 -20 0 -30 13 -69 85 -34 64 -49 88 -67 108 -9
11 -20 33 -23 48 -4 16 -10 29 -14 29 -4 0 -18 19 -31 43 -13 23 -26 44 -30
47 -3 3 -12 20 -20 38 -7 19 -18 39 -25 45 -6 7 -25 33 -43 58 -45 67 -112 78
-133 23 -10 -29 23 -110 65 -159 13 -15 30 -40 38 -54 15 -30 77 -120 95 -139
7 -7 13 -19 13 -25 0 -7 15 -31 34 -54 18 -24 48 -71 65 -106 18 -36 41 -73
51 -85 11 -11 22 -32 26 -46 3 -14 9 -26 13 -26 4 0 18 -19 31 -42 13 -24 26
-45 29 -48 3 -3 15 -23 26 -45 11 -22 25 -45 31 -52 7 -7 31 -47 54 -90 24
-43 47 -80 52 -81 5 -2 17 -21 27 -41 11 -20 42 -61 69 -90 43 -46 54 -52 83
-49 l34 3 0 57 c0 48 -5 62 -31 95 -17 21 -52 71 -78 112 -26 41 -54 80 -62
88 -8 8 -14 21 -14 29 0 8 -4 14 -10 14 -5 0 -10 6 -10 13 0 8 -9 22 -19 31
-11 10 -27 34 -37 54 -9 21 -30 56 -45 79 -32 45 -37 73 -15 73 8 0 43 15 78
34 71 37 86 36 111 -12 41 -77 70 -127 102 -174 19 -29 35 -58 35 -65 0 -7 5
-13 10 -13 6 0 10 -6 10 -13 0 -7 9 -23 20 -34 11 -12 27 -35 37 -51 10 -16
37 -50 60 -76 23 -25 43 -51 45 -57 6 -18 82 -23 97 -6 33 40 16 80 -104 257
-38 56 -78 116 -87 132 -9 17 -27 42 -40 56 -13 15 -36 49 -52 77 -30 51 -39
63 -68 95 -9 10 -19 28 -23 40 -6 20 -21 41 -50 74 -6 6 -24 33 -40 61 -29 51
-38 63 -67 95 -9 10 -19 28 -23 40 -6 20 -19 38 -50 74 -6 6 -19 28 -30 49
-11 21 -36 60 -56 86 -20 27 -40 59 -44 72 -10 32 -45 69 -64 68 -9 -1 -28 -8
-43 -16z"/>
<path d="M17955 30122 c-22 -15 -51 -39 -65 -54 -29 -32 -39 -43 -80 -83 -16
-16 -30 -34 -30 -38 0 -8 -48 -76 -61 -87 -5 -4 -63 -90 -94 -139 -5 -9 -12
-18 -15 -21 -3 -3 -11 -16 -18 -30 -20 -42 -50 -91 -65 -108 -8 -9 -18 -28
-22 -40 -4 -13 -20 -43 -36 -67 -16 -24 -29 -48 -29 -54 0 -6 -4 -11 -9 -11
-5 0 -12 -12 -16 -27 -3 -16 -23 -64 -45 -108 -21 -44 -45 -111 -55 -150 -9
-38 -21 -89 -27 -113 -14 -54 -6 -114 22 -178 19 -43 31 -56 74 -78 71 -37
156 -37 229 1 45 23 112 77 151 121 6 7 25 28 43 46 17 19 43 53 58 76 15 24
36 53 46 64 11 11 19 26 19 33 0 7 5 13 10 13 6 0 10 6 10 13 0 6 18 39 40 72
22 33 55 88 72 123 18 35 41 72 50 82 10 11 18 24 18 30 0 6 20 50 44 98 24
48 52 121 62 162 20 84 25 250 7 271 -6 8 -14 28 -17 44 -7 30 -101 132 -143
154 -35 18 -85 12 -128 -17z m140 -128 c46 -30 69 -82 68 -159 0 -44 -6 -81
-17 -100 -9 -16 -16 -35 -16 -41 0 -5 -8 -19 -18 -30 -10 -10 -55 -95 -102
-189 -46 -93 -96 -188 -110 -210 -14 -22 -33 -57 -44 -77 -10 -20 -27 -46 -36
-56 -10 -10 -29 -37 -44 -60 -50 -80 -183 -215 -236 -240 -47 -23 -103 -21
-130 3 -18 17 -21 27 -17 75 3 30 10 78 16 105 12 48 18 64 75 186 14 31 26
62 26 68 0 7 8 25 18 39 10 15 24 39 32 55 7 15 17 27 22 27 4 0 8 8 8 19 0
10 15 41 33 68 49 75 56 86 66 108 5 11 23 38 41 60 18 22 36 50 41 63 5 13
26 49 47 80 22 31 47 74 56 94 10 21 26 40 37 43 10 4 19 10 19 14 0 4 14 22
31 39 25 25 40 32 71 32 21 0 50 -7 63 -16z"/>
<path d="M7550 29393 c-14 -9 -38 -33 -55 -54 -16 -21 -37 -41 -45 -44 -8 -3
-28 -33 -44 -66 -26 -53 -27 -63 -16 -85 17 -31 74 -34 92 -4 7 11 16 20 21
20 15 0 72 -56 148 -145 109 -128 223 -248 454 -480 132 -133 272 -277 310
-320 39 -44 74 -83 79 -87 11 -7 -6 -31 -46 -66 -38 -33 -40 -87 -3 -96 23 -6
89 16 105 34 3 3 23 19 45 35 66 49 129 118 143 156 16 47 17 44 -22 63 -38
18 -56 14 -105 -22 l-35 -26 -30 40 c-17 21 -205 215 -417 429 -212 215 -412
419 -445 454 -32 36 -67 73 -76 83 -26 27 -22 56 12 86 38 34 38 65 1 91 -34
24 -37 24 -71 4z"/>
<path d="M19310 29130 c-8 -5 -31 -16 -50 -25 -30 -13 -52 -30 -125 -94 -5 -5
-19 -21 -30 -36 -11 -16 -26 -34 -33 -41 -11 -11 -31 -56 -92 -209 -10 -23
-16 -52 -35 -155 -16 -90 -22 -114 -42 -160 -45 -104 -77 -160 -107 -188 -19
-17 -35 -34 -37 -39 -5 -10 -99 -78 -146 -104 -18 -10 -53 -19 -76 -19 -36 0
-48 6 -89 46 -51 49 -72 52 -96 13 -24 -39 19 -108 87 -139 14 -7 34 -16 43
-21 45 -23 125 -6 211 43 26 16 52 28 57 28 11 0 116 102 154 150 15 19 37 55
49 80 12 25 25 47 29 48 4 2 8 10 8 18 0 8 4 22 9 32 21 42 30 70 36 117 3 28
10 64 15 80 5 17 14 50 20 75 14 50 28 95 40 125 5 11 11 32 14 48 8 32 24 54
91 122 75 75 108 95 157 95 37 0 46 -4 61 -29 20 -35 49 -44 76 -24 45 31 15
125 -49 158 -31 16 -126 19 -150 5z"/>
<path d="M20283 28193 c-28 -11 3 -131 42 -163 8 -7 15 -18 15 -24 0 -11 -100
-107 -165 -158 -16 -12 -46 -39 -66 -58 -21 -19 -58 -53 -83 -75 -25 -22 -68
-60 -95 -85 -143 -128 -166 -149 -332 -303 -46 -42 -95 -85 -109 -94 -14 -10
-36 -27 -50 -40 -43 -37 -67 -57 -89 -73 -34 -23 -28 -66 12 -85 30 -14 36
-14 68 1 18 9 45 29 59 43 14 15 35 34 48 43 12 8 42 33 65 54 23 22 84 77
136 124 52 47 122 112 156 145 34 33 92 87 130 120 37 33 73 65 79 72 23 26
37 39 86 83 28 25 73 66 101 93 28 26 57 47 64 47 8 0 21 10 29 21 16 24 46
20 46 -6 0 -8 4 -15 8 -15 5 0 17 -15 27 -34 29 -54 97 -61 109 -11 9 36 -16
83 -80 149 -6 7 -15 23 -19 36 -4 14 -11 27 -14 30 -4 3 -27 34 -53 71 -25 36
-52 70 -60 76 -18 14 -50 22 -65 16z"/>
<path d="M7636 27225 c-35 -33 -33 -61 10 -101 41 -39 70 -43 108 -13 21 16
26 29 26 64 0 34 -5 46 -25 59 -36 24 -87 20 -119 -9z"/>
<path d="M5762 26781 c-53 -20 -118 -82 -144 -137 -18 -40 -18 -42 -1 -73 10
-18 29 -38 43 -45 14 -7 50 -25 80 -41 30 -15 71 -36 90 -46 19 -9 62 -30 95
-45 33 -16 62 -31 65 -34 10 -10 50 -30 62 -30 7 0 33 -11 58 -24 104 -54 130
-67 235 -116 61 -28 118 -56 127 -61 10 -5 24 -9 32 -9 8 0 16 -3 18 -7 2 -5
30 -21 63 -37 106 -51 136 -67 145 -77 7 -7 76 -39 85 -39 4 0 28 -14 53 -31
38 -25 51 -30 72 -22 38 13 49 56 23 91 -11 15 -31 29 -44 30 -13 2 -28 7 -34
12 -5 4 -29 11 -52 15 -24 4 -43 11 -43 16 0 5 -7 9 -16 9 -9 0 -41 14 -71 30
-30 17 -59 30 -65 30 -16 0 -79 31 -125 62 -23 15 -47 28 -53 28 -26 0 -163
87 -155 99 8 13 135 -11 210 -39 53 -20 154 -49 190 -55 22 -4 65 -15 95 -24
100 -32 149 -41 230 -41 73 0 81 2 96 25 33 51 -2 80 -106 89 -78 6 -169 20
-270 41 -41 9 -87 19 -103 22 -15 3 -30 9 -33 14 -3 5 -15 9 -28 9 -12 0 -26
3 -30 7 -11 12 -79 32 -129 39 -26 4 -50 11 -53 15 -3 5 -14 9 -25 9 -24 0
-84 56 -93 87 -4 13 -26 43 -49 67 -23 24 -48 53 -56 65 -8 11 -28 23 -43 26
-15 4 -28 11 -28 16 0 5 -7 9 -15 9 -8 0 -15 5 -15 10 0 6 -5 10 -11 10 -6 0
-23 9 -38 19 -15 11 -43 22 -64 26 -20 4 -40 11 -43 16 -8 14 -85 9 -132 -10z
m168 -123 c25 -13 54 -31 64 -40 11 -10 24 -18 28 -18 15 0 119 -103 144 -142
21 -33 31 -68 21 -68 -6 0 -68 29 -102 47 -16 9 -57 29 -90 45 -33 16 -71 36
-85 44 -14 7 -54 28 -90 45 -36 17 -72 35 -80 39 -23 11 -25 52 -3 68 27 21
137 9 193 -20z"/>
<path d="M21285 26722 c-6 -5 -40 -18 -77 -30 -37 -12 -91 -34 -120 -48 -29
-15 -60 -30 -68 -34 -9 -4 -31 -11 -50 -14 -35 -7 -44 -10 -112 -40 -48 -21
-157 -56 -174 -56 -8 0 -22 -4 -32 -9 -36 -19 -125 -51 -143 -51 -10 0 -20 -4
-23 -9 -3 -4 -25 -11 -48 -15 -47 -7 -103 -23 -130 -37 -10 -5 -27 -9 -37 -9
-11 0 -22 -4 -25 -9 -6 -9 -21 -13 -126 -35 -36 -8 -83 -19 -105 -26 -22 -6
-52 -14 -68 -17 -28 -5 -57 -36 -57 -61 0 -8 9 -27 21 -43 17 -24 27 -29 64
-29 24 0 47 5 50 10 3 6 13 10 21 10 8 0 34 9 56 20 23 11 49 20 58 20 9 0 20
4 25 9 6 6 33 13 60 16 l50 7 13 -39 c8 -21 22 -57 32 -79 24 -54 34 -94 24
-94 -5 0 -23 -14 -41 -30 -18 -17 -36 -30 -40 -30 -9 0 -41 -23 -72 -50 -9 -8
-35 -25 -57 -37 -32 -18 -40 -28 -42 -55 -5 -55 13 -88 46 -88 16 0 37 9 47
20 10 11 23 20 30 20 7 0 23 9 36 21 13 11 35 30 49 42 14 12 36 30 50 39 14
9 41 30 60 47 19 17 38 31 42 31 4 0 13 6 20 13 21 21 79 61 118 82 34 19 149
94 160 105 20 20 89 68 105 74 11 3 40 24 65 46 24 22 50 40 56 40 6 0 18 8
25 17 8 9 46 37 84 62 39 25 89 60 113 78 24 18 50 33 58 33 8 0 14 3 14 8 0
4 20 18 44 30 61 33 70 81 27 155 -15 27 -56 37 -76 19z m-185 -201 c0 -5 -12
-13 -27 -19 -16 -5 -39 -19 -53 -31 -13 -12 -40 -32 -60 -44 -19 -11 -41 -27
-48 -34 -7 -7 -17 -13 -21 -13 -4 0 -20 -10 -34 -23 -15 -12 -43 -31 -64 -42
-21 -11 -45 -27 -55 -35 -28 -25 -42 -35 -68 -48 -44 -21 -91 -50 -108 -65 -9
-9 -29 -18 -44 -22 -14 -4 -34 -15 -44 -26 -9 -10 -22 -19 -28 -19 -19 0 -56
83 -63 138 -5 45 -3 52 13 58 11 3 26 9 34 13 9 5 31 11 50 15 19 4 58 16 85
28 28 11 61 25 75 30 14 6 33 14 42 19 10 5 24 9 33 9 14 0 93 24 130 40 59
25 134 50 168 56 20 3 40 10 43 15 7 12 44 12 44 0z"/>
<path d="M5095 25370 c-11 -5 -34 -9 -52 -9 -17 -1 -34 -5 -37 -10 -3 -4 -22
-11 -42 -14 -48 -8 -135 -83 -159 -139 -11 -23 -22 -45 -26 -48 -3 -3 -9 -16
-12 -30 -3 -14 -11 -47 -17 -73 -7 -27 -9 -64 -6 -83 11 -55 39 -67 194 -76
75 -5 141 -12 146 -17 6 -4 31 -13 56 -21 25 -7 49 -17 55 -22 5 -4 18 -8 30
-8 12 0 25 -4 31 -9 8 -8 57 -21 134 -37 14 -3 34 -9 45 -14 28 -12 178 -47
250 -59 33 -5 80 -15 105 -21 25 -6 60 -14 78 -17 18 -3 35 -9 38 -14 3 -5 18
-9 34 -9 16 0 31 -4 34 -9 3 -4 29 -11 57 -15 28 -4 58 -11 67 -15 10 -4 37
-18 62 -29 25 -12 51 -22 58 -22 6 0 12 -4 12 -10 0 -5 6 -10 13 -10 8 0 24
-11 37 -25 13 -14 29 -25 37 -25 19 0 61 40 78 74 16 32 20 126 6 154 -5 9
-22 44 -37 76 -26 52 -65 102 -133 171 -73 72 -120 115 -129 115 -5 0 -23 13
-40 28 -16 15 -52 40 -78 54 -27 14 -74 39 -106 56 -31 17 -73 34 -95 37 -21
4 -47 10 -58 15 -11 4 -36 13 -55 20 -19 7 -44 16 -55 20 -126 49 -462 95
-520 70z m322 -141 c59 -14 181 -49 208 -60 11 -4 35 -11 54 -15 51 -10 277
-122 324 -161 16 -12 34 -23 41 -23 7 0 21 -10 33 -22 11 -13 35 -37 54 -54
51 -46 113 -123 124 -155 6 -15 13 -31 18 -35 4 -4 7 -16 7 -26 0 -19 -25 -25
-35 -8 -3 6 -19 10 -35 10 -16 0 -31 4 -34 9 -3 4 -25 11 -48 15 -40 6 -87 19
-133 36 -11 4 -40 13 -65 20 -25 7 -55 16 -68 21 -12 5 -48 12 -80 15 -31 4
-61 10 -67 14 -5 4 -23 10 -40 13 -16 3 -47 10 -67 16 -80 23 -115 32 -183 46
-86 17 -127 27 -230 55 -44 12 -105 27 -135 34 -30 7 -62 15 -70 18 -8 3 -34
11 -57 18 -48 15 -47 14 -31 61 19 56 136 149 188 149 10 0 22 5 25 10 8 14
242 13 302 -1z"/>
<path d="M21825 25333 c-11 -2 -29 -8 -40 -12 -43 -17 -92 -31 -113 -31 -11 0
-23 -4 -26 -9 -3 -5 -20 -11 -38 -14 -18 -3 -62 -11 -98 -17 -36 -6 -76 -15
-90 -19 -14 -5 -45 -14 -70 -21 -25 -7 -54 -16 -65 -20 -37 -13 -90 -28 -125
-35 -19 -3 -44 -10 -55 -15 -76 -31 -130 -50 -146 -50 -10 0 -20 -4 -24 -9 -3
-6 -26 -13 -50 -17 -25 -3 -48 -10 -51 -15 -3 -5 -14 -9 -25 -9 -10 0 -28 -4
-39 -10 -11 -5 -29 -14 -40 -20 -11 -5 -29 -10 -39 -10 -11 0 -22 -4 -25 -9
-3 -5 -27 -12 -52 -16 -26 -4 -54 -10 -63 -15 -9 -4 -29 -14 -44 -21 -26 -12
-28 -17 -25 -63 3 -48 5 -51 32 -54 16 -2 39 1 50 6 43 20 132 51 166 57 33 6
64 17 102 36 10 5 26 9 36 9 10 0 22 4 27 8 13 11 77 31 145 44 83 15 290 22
290 9 0 -6 -8 -11 -18 -11 -9 0 -34 -11 -54 -25 -20 -14 -40 -25 -43 -25 -3 0
-15 -9 -26 -19 -12 -11 -32 -22 -46 -26 -14 -3 -33 -14 -44 -24 -11 -10 -32
-24 -47 -32 -15 -8 -33 -20 -40 -26 -7 -7 -18 -13 -23 -13 -11 0 -16 -4 -69
-50 -19 -16 -40 -30 -46 -30 -6 0 -25 -12 -41 -27 -17 -16 -52 -46 -79 -68
-62 -51 -93 -87 -121 -136 -26 -44 -18 -77 22 -99 29 -15 71 5 105 51 42 56
148 157 205 195 30 20 55 39 55 44 0 4 17 16 38 25 20 10 39 21 42 24 8 11
103 75 132 90 15 8 36 22 45 30 10 9 36 25 58 34 22 10 48 22 57 27 10 6 26
10 36 10 10 0 22 3 26 7 11 11 79 33 105 33 14 0 38 -4 55 -10 50 -16 156 -41
231 -56 39 -7 94 -18 123 -24 65 -14 82 -4 82 50 0 54 -8 59 -155 91 -27 6
-68 15 -90 20 -62 15 -151 28 -262 41 -57 6 -103 14 -103 18 0 4 33 17 73 30
39 13 77 27 82 31 6 4 30 10 55 14 25 3 70 15 100 25 30 10 78 21 107 25 68 9
98 39 89 88 -4 20 -14 38 -22 41 -17 7 -67 6 -99 -1z"/>
<path d="M14578 24407 c-21 -11 -40 -29 -44 -39 -3 -10 -9 -18 -14 -18 -5 0
-25 -16 -44 -36 -18 -20 -38 -41 -44 -46 -5 -6 -26 -26 -45 -45 -19 -19 -39
-40 -45 -45 -5 -6 -26 -26 -45 -45 -19 -19 -39 -40 -45 -45 -5 -6 -26 -27 -46
-47 -20 -20 -41 -40 -45 -45 -5 -4 -25 -24 -44 -43 -19 -19 -39 -40 -45 -45
-5 -6 -26 -26 -45 -45 -19 -19 -39 -39 -43 -44 -5 -4 -26 -25 -47 -46 -21 -21
-41 -41 -45 -45 -4 -4 -24 -24 -45 -45 -21 -21 -41 -41 -45 -45 -4 -4 -23 -24
-43 -44 -20 -20 -41 -40 -45 -45 -5 -5 -45 -45 -89 -88 -44 -43 -85 -84 -91
-91 -7 -7 -28 -28 -47 -47 -19 -19 -39 -40 -45 -45 -5 -6 -26 -26 -45 -45 -19
-19 -39 -39 -43 -44 -94 -92 -1343 -1342 -1352 -1353 -10 -13 -10 -20 0 -36
12 -19 23 -20 153 -19 77 0 190 4 251 8 l112 8 1156 1156 c636 636 1165 1172
1176 1192 23 41 27 119 8 161 -16 35 -70 93 -103 110 -40 21 -133 16 -177 -9z
m-194 -603 c10 -4 16 -18 16 -35 l0 -29 -180 0 -180 0 0 29 c0 16 6 32 13 34
18 8 312 8 331 1z m-147 -190 c13 -35 -23 -44 -183 -44 -132 0 -155 2 -174 18
-44 36 -19 42 171 42 157 0 180 -2 186 -16z m-169 -143 c8 -5 12 -17 10 -27
-3 -18 -16 -19 -177 -22 -183 -3 -201 1 -180 40 9 16 26 18 172 18 89 0 168
-4 175 -9z"/>
<path d="M5210 23081 c-60 -11 -108 -27 -136 -46 -13 -8 -28 -15 -34 -15 -19
0 -130 -75 -136 -92 -3 -9 -13 -20 -24 -23 -10 -3 -28 -18 -39 -33 -12 -15
-35 -45 -52 -67 -31 -40 -69 -114 -69 -135 0 -5 -4 -18 -9 -28 -49 -95 -50
-317 0 -437 4 -11 11 -31 15 -45 13 -46 101 -166 169 -228 37 -34 72 -62 77
-62 5 0 18 -9 30 -20 12 -11 29 -20 37 -20 9 0 27 -6 41 -13 14 -7 45 -19 70
-26 25 -7 58 -17 74 -22 81 -25 255 -4 346 41 9 4 29 10 45 14 29 6 131 75
168 113 77 79 109 122 152 209 l50 99 0 180 c0 189 1 185 -52 290 -9 17 -24
46 -33 65 -29 57 -179 202 -223 216 -12 4 -33 14 -47 23 -66 45 -133 62 -255
66 -66 2 -140 0 -165 -4z"/>
<path d="M21530 23082 c-25 -4 -60 -15 -79 -25 -19 -9 -38 -17 -43 -17 -6 0
-22 -8 -36 -19 -15 -10 -37 -21 -49 -25 -24 -8 -61 -38 -131 -107 -72 -71 -71
-70 -132 -189 -13 -25 -28 -56 -34 -69 -7 -15 -11 -94 -11 -205 l0 -181 50
-99 c43 -87 75 -130 152 -209 37 -38 139 -107 168 -113 16 -4 36 -10 45 -14
91 -45 265 -66 346 -41 16 5 49 15 74 22 25 7 50 16 55 20 6 4 24 10 41 13 17
4 41 16 52 26 12 11 25 20 30 20 5 0 40 28 77 62 68 62 156 182 169 228 4 14
11 34 15 45 50 120 49 342 0 437 -5 10 -9 23 -9 30 0 7 -12 36 -26 63 -82 153
-227 274 -404 334 -42 14 -257 23 -320 13z"/>
<path d="M11517 21232 c-279 -279 -507 -511 -507 -515 0 -9 13 -22 41 -45 56
-43 253 -32 359 21 36 17 67 34 70 38 3 3 17 9 33 13 15 3 35 14 45 24 10 9
30 23 45 31 15 8 27 18 27 23 0 4 6 8 13 8 8 0 23 8 34 18 12 9 38 31 58 47
93 74 166 139 211 187 12 13 31 30 43 38 20 13 21 23 21 143 l0 129 133 133
c72 73 150 152 172 174 l39 41 -165 0 -164 0 -508 -508z m457 329 c17 -19 15
-23 -74 -115 -75 -77 -99 -96 -121 -96 -26 0 -29 4 -29 31 0 22 9 39 33 60 38
35 40 36 75 74 30 34 71 64 88 64 6 1 19 -8 28 -18z m-236 -260 c3 -20 -38
-66 -240 -268 -202 -203 -247 -243 -268 -241 -19 2 -26 10 -28 31 -3 24 25 56
235 267 213 214 241 239 268 237 23 -2 31 -7 33 -26z"/>
<path d="M11470 20683 c-24 -18 -74 -36 -172 -64 -27 -7 -48 -16 -48 -20 0 -3
26 -10 58 -15 90 -13 1709 -10 2317 4 1107 28 1278 31 1678 38 425 7 559 24
200 25 -304 0 -1738 18 -2408 29 -319 5 -809 12 -1090 15 -483 6 -511 5 -535
-12z"/>
<path d="M15720 20640 c0 -5 5 -10 10 -10 6 0 10 5 10 10 0 6 -4 10 -10 10 -5
0 -10 -4 -10 -10z"/>
<path d="M6275 20386 c-5 -2 -30 -9 -55 -17 -25 -7 -57 -21 -72 -31 -14 -10
-29 -18 -33 -18 -9 0 -114 -69 -138 -90 -11 -11 -24 -20 -28 -20 -9 0 -55 -44
-60 -57 -2 -5 -17 -19 -34 -31 -16 -13 -67 -58 -112 -99 -46 -42 -91 -81 -102
-87 -30 -18 -75 -50 -95 -68 -10 -9 -32 -20 -47 -23 -16 -4 -43 -14 -60 -22
-52 -26 -100 -36 -195 -40 -78 -4 -98 -1 -136 17 -73 34 -92 60 -85 117 10 91
-9 122 -66 108 -17 -5 -28 -18 -37 -46 -16 -48 -2 -119 36 -186 25 -43 89
-103 110 -103 7 0 14 -6 17 -12 3 -10 45 -13 164 -13 156 0 168 2 235 36 10 5
23 9 29 9 6 0 23 8 37 19 15 10 38 22 52 26 14 4 27 11 30 14 3 4 21 18 40 31
19 14 41 29 49 35 21 16 109 96 146 134 18 18 37 37 41 42 38 37 191 161 218
176 21 12 105 50 159 72 96 39 244 -19 230 -90 -7 -35 19 -79 46 -79 40 0 66
64 54 136 -7 42 -68 110 -126 139 -29 16 -185 31 -212 21z"/>
<path d="M21895 19824 c-33 -36 -31 -56 9 -98 40 -43 64 -45 100 -10 30 31 34
72 10 109 -24 36 -86 35 -119 -1z"/>
<path d="M19353 18082 c-13 -15 -23 -30 -23 -34 0 -3 23 -40 51 -81 43 -65
117 -141 283 -291 16 -14 27 -28 24 -31 -3 -3 -63 24 -134 60 -71 35 -133 65
-138 65 -4 0 -42 16 -83 35 -41 19 -83 35 -93 35 -10 0 -22 5 -25 10 -11 18
-53 11 -69 -12 -30 -42 -23 -51 104 -129 14 -8 48 -23 75 -34 28 -10 65 -27
83 -37 18 -10 41 -18 52 -18 10 0 21 -4 24 -9 3 -5 22 -12 42 -16 20 -3 44
-10 53 -14 9 -4 48 -23 86 -40 115 -54 170 -84 178 -98 4 -7 23 -19 40 -27 18
-7 39 -20 47 -28 8 -8 50 -32 93 -53 42 -21 85 -47 94 -57 9 -10 22 -18 30
-18 7 0 13 -4 13 -10 0 -5 6 -10 13 -10 7 0 29 -15 48 -32 19 -18 52 -46 74
-62 22 -17 47 -37 55 -46 8 -9 33 -29 55 -45 22 -17 47 -37 55 -45 50 -53 97
-63 130 -28 49 53 22 83 -247 263 -29 19 -53 39 -53 43 0 5 -16 17 -37 28 -20
10 -46 28 -58 39 -29 27 -54 46 -90 69 -16 11 -39 28 -50 39 -11 10 -37 30
-57 43 -40 25 -94 74 -175 156 -13 13 -33 33 -45 45 -22 21 -37 38 -142 158
-128 145 -164 183 -201 212 -22 18 -44 33 -50 33 -5 0 -20 -13 -32 -28z"/>
<path d="M7555 18040 c-28 -28 -70 -63 -95 -79 -25 -16 -54 -37 -65 -48 -11
-10 -38 -32 -60 -48 -22 -17 -49 -38 -60 -49 -11 -10 -36 -28 -55 -41 -19 -12
-49 -36 -66 -52 -17 -17 -38 -34 -47 -39 -8 -5 -33 -25 -54 -44 -21 -19 -49
-42 -63 -51 -26 -17 -268 -257 -333 -330 -21 -24 -40 -53 -43 -66 -4 -13 -10
-23 -14 -23 -14 0 -69 -123 -83 -187 -12 -54 -12 -72 0 -126 12 -55 22 -71 64
-113 l49 -48 78 0 c76 0 120 15 172 59 8 7 29 20 45 28 17 9 47 32 68 51 20
20 40 36 45 36 4 0 23 15 42 33 19 17 53 45 75 62 22 16 51 41 65 55 14 14 38
34 54 44 29 18 43 31 144 126 30 27 57 50 60 50 6 1 51 39 127 109 11 10 54
44 95 77 41 32 76 62 78 66 2 4 18 15 36 23 19 9 42 24 52 33 11 9 36 26 56
37 29 15 39 27 44 54 8 42 -4 63 -43 74 -24 7 -37 4 -74 -21 -25 -17 -56 -44
-70 -59 -13 -16 -37 -37 -53 -47 -16 -10 -44 -34 -63 -52 -19 -19 -37 -34 -41
-34 -4 0 -29 -20 -56 -45 -26 -25 -51 -45 -55 -45 -3 0 -30 -21 -58 -47 -29
-27 -73 -66 -99 -88 -68 -59 -114 -105 -114 -114 0 -4 -11 -13 -24 -19 -13 -6
-39 -24 -57 -41 -19 -17 -48 -41 -66 -53 -55 -40 -157 -117 -188 -143 -124
-102 -186 -133 -249 -121 -31 6 -36 11 -42 42 -16 86 11 187 66 246 11 12 20
27 20 33 0 11 93 111 155 167 46 41 108 103 131 130 20 23 84 77 111 95 15 10
44 35 66 56 21 20 41 37 46 37 4 0 21 12 37 28 17 15 52 45 79 67 26 22 62 52
79 66 17 14 42 34 55 45 13 10 38 31 54 47 17 15 34 27 39 27 19 0 138 130
138 151 0 24 -46 69 -70 69 -8 0 -38 -23 -65 -50z"/>
<path d="M17360 16244 c-38 -7 -73 -26 -97 -53 -22 -25 -22 -25 -2 -52 10 -15
19 -32 19 -38 0 -6 4 -11 9 -11 5 0 21 -25 36 -55 16 -30 36 -63 46 -74 11
-11 19 -22 19 -25 0 -9 75 -131 92 -149 9 -11 19 -31 23 -45 4 -15 10 -29 14
-32 11 -7 81 -113 81 -122 0 -5 17 -34 38 -66 59 -90 62 -96 68 -114 4 -10 10
-18 15 -18 5 0 9 -6 9 -13 0 -8 9 -22 20 -32 11 -10 20 -24 20 -30 0 -7 20
-41 43 -76 24 -35 52 -80 61 -100 9 -20 25 -45 34 -55 9 -11 26 -37 37 -59 11
-22 26 -46 33 -53 6 -7 12 -17 12 -22 0 -5 11 -21 24 -37 13 -15 27 -39 31
-53 13 -43 95 -104 95 -71 0 5 9 11 20 14 26 7 27 56 2 83 -11 11 -23 32 -28
46 -5 14 -17 36 -26 49 -29 40 -129 201 -156 252 -14 26 -28 47 -33 47 -4 0
-11 9 -14 20 -3 11 -12 26 -18 33 -7 7 -21 30 -32 52 -11 22 -28 48 -37 59 -9
10 -24 33 -33 50 -23 45 -39 70 -50 78 -5 4 -7 10 -3 13 4 4 23 -8 42 -27 20
-18 58 -52 84 -75 26 -23 68 -62 94 -87 26 -24 57 -47 68 -51 11 -3 20 -10 20
-15 0 -5 15 -24 34 -42 176 -170 227 -223 251 -264 10 -18 35 -39 58 -49 37
-16 42 -16 73 -1 37 17 41 30 20 70 -13 25 -113 126 -125 126 -3 0 -28 20 -55
45 -26 25 -51 45 -55 45 -3 1 -29 22 -58 48 -28 26 -75 67 -105 92 -42 35
-166 165 -223 233 -35 41 -53 77 -58 112 -14 112 -30 184 -50 225 -12 25 -24
47 -27 50 -8 8 -29 43 -39 65 -16 34 -88 97 -152 133 -37 21 -124 34 -169 26z
m87 -94 c23 0 132 -118 154 -166 12 -27 34 -77 50 -111 36 -77 39 -163 5 -163
-12 0 -66 80 -66 99 0 6 -4 11 -10 11 -5 0 -10 5 -10 11 0 6 -9 23 -19 38 -11
14 -30 47 -43 71 -37 69 -51 92 -70 113 -9 11 -20 33 -23 48 -4 16 -11 29 -16
29 -5 0 -9 7 -9 16 0 12 6 15 23 10 12 -3 27 -6 34 -6z"/>
<path d="M9704 16173 c-11 -10 -28 -37 -38 -61 -11 -23 -25 -47 -32 -53 -8 -6
-24 -32 -36 -58 -13 -25 -25 -48 -28 -51 -3 -3 -11 -17 -19 -32 -8 -15 -22
-36 -32 -47 -10 -11 -21 -31 -24 -44 -4 -14 -15 -33 -26 -43 -10 -9 -19 -20
-19 -24 0 -9 -65 -120 -81 -138 -6 -7 -32 -50 -57 -95 -25 -45 -54 -90 -63
-101 -10 -10 -21 -32 -24 -47 -4 -16 -10 -29 -14 -29 -4 0 -18 -19 -31 -42
-13 -24 -26 -45 -30 -48 -3 -3 -12 -20 -19 -37 -7 -18 -24 -45 -37 -60 -13
-16 -33 -46 -44 -68 -26 -53 -51 -95 -72 -118 -9 -10 -19 -30 -23 -44 -3 -14
-14 -34 -25 -45 -29 -32 -51 -84 -43 -105 16 -44 63 -55 91 -22 9 11 27 32 39
47 12 14 25 37 28 51 4 14 13 34 22 43 16 18 43 63 73 124 12 23 29 50 38 60
9 10 26 37 37 59 11 22 37 66 58 97 20 31 37 61 37 65 0 4 23 42 51 83 l51 75
-7 -60 c-4 -33 -11 -68 -16 -77 -5 -9 -9 -28 -9 -42 0 -14 -4 -27 -9 -30 -5
-3 -11 -20 -14 -38 -3 -18 -10 -51 -17 -73 -6 -22 -16 -62 -21 -90 -5 -27 -13
-59 -18 -70 -5 -11 -14 -38 -20 -60 -12 -39 -26 -75 -41 -105 -4 -9 -11 -31
-15 -50 -4 -18 -16 -49 -26 -67 -28 -50 -25 -107 7 -132 35 -27 38 -27 73 10
21 21 32 45 36 77 7 45 13 73 35 145 6 18 10 45 10 60 0 14 4 28 9 31 5 3 11
23 14 43 15 107 40 210 58 245 5 10 9 25 9 33 0 8 4 23 9 33 17 32 30 67 47
125 9 31 21 57 25 57 5 0 9 5 9 11 0 15 62 79 76 79 6 0 35 23 63 50 28 28 56
50 61 50 5 0 16 13 25 29 8 16 21 35 28 43 52 52 86 157 87 266 0 45 -4 90
-10 100 -5 9 -14 29 -20 44 -9 26 -91 87 -116 88 -6 0 -20 -8 -30 -17z m70
-242 c-24 -105 -36 -124 -154 -250 -41 -44 -64 -60 -91 -65 -35 -6 -36 -5 -31
19 2 14 8 25 13 25 5 0 9 6 9 13 0 8 9 22 19 31 11 10 27 34 37 54 18 39 73
123 85 132 4 3 11 18 14 33 4 15 10 27 14 27 3 0 22 25 41 55 l35 54 14 -26
c11 -23 11 -36 -5 -102z"/>
<path d="M14986 15280 c-22 -11 -50 -20 -63 -20 -14 0 -26 -7 -29 -17 -3 -10
-10 -26 -15 -35 -17 -33 -8 -86 32 -193 18 -49 28 -82 34 -115 4 -19 11 -53
16 -75 5 -22 16 -80 24 -130 8 -49 19 -108 24 -130 5 -22 14 -65 21 -95 7 -30
16 -73 21 -95 5 -22 16 -80 24 -130 8 -49 19 -108 24 -130 5 -22 14 -65 21
-95 7 -30 16 -73 21 -95 5 -22 15 -78 23 -125 7 -47 18 -97 24 -112 11 -26 15
-28 72 -28 75 0 141 15 205 47 57 29 65 38 65 75 0 44 -49 47 -216 13 -36 -8
-34 -12 -59 140 -8 50 -19 108 -24 130 -5 22 -14 65 -21 95 -7 30 -16 73 -21
95 -5 22 -14 73 -20 113 -10 67 -9 74 7 87 11 8 32 15 47 15 55 0 85 66 49
108 -24 27 -61 28 -104 2 -18 -11 -35 -20 -38 -20 -6 0 -22 74 -40 180 -22
138 -39 218 -50 245 -4 11 -13 40 -20 65 -7 25 -16 58 -21 74 -5 16 -9 30 -9
31 0 1 25 5 56 9 66 8 113 30 116 54 3 35 -3 55 -20 68 -26 20 -111 16 -156
-6z"/>
<path d="M12310 15254 c-48 -17 -71 -34 -127 -90 -46 -46 -72 -84 -102 -148
-23 -47 -41 -90 -41 -96 0 -6 -4 -18 -10 -28 -5 -9 -14 -39 -20 -67 -6 -27
-15 -66 -20 -85 -33 -141 -47 -219 -60 -340 -6 -52 -16 -117 -22 -145 -15 -67
-17 -417 -2 -436 6 -8 14 -31 18 -52 9 -46 39 -104 72 -135 13 -13 24 -27 24
-32 0 -6 5 -10 11 -10 6 0 24 -10 41 -21 37 -27 133 -36 208 -20 48 10 55 10
74 -8 33 -30 60 -34 87 -12 23 19 24 24 30 218 3 109 9 206 14 216 8 19 -9 71
-33 100 -12 14 -32 17 -109 17 -99 0 -114 -6 -127 -47 -10 -32 25 -59 86 -66
28 -4 55 -10 60 -15 5 -5 7 -60 6 -122 l-3 -114 -50 -38 c-43 -33 -57 -38
-102 -38 -28 0 -55 5 -58 10 -3 6 -12 10 -19 10 -15 0 -84 66 -103 98 -27 45
-36 194 -23 379 6 98 15 182 18 188 3 5 10 30 14 55 6 42 16 89 39 200 6 25
14 72 20 105 5 33 14 69 19 80 5 11 14 38 21 60 6 22 16 50 20 63 5 12 13 32
18 45 23 59 54 118 81 152 17 21 30 41 30 45 0 26 117 40 163 19 32 -14 77 13
77 46 0 42 -33 58 -123 62 -45 1 -89 0 -97 -3z"/>
</g>
</svg>
